<svg width="40" height="40" viewBox="0 0 40 40" fill="none" xmlns="http://www.w3.org/2000/svg">
<path d="M20 0C11.7125 0 5 6.7125 5 15C4.9983 18.1489 5.98822 21.2184 7.82933 23.773C9.67043 26.3276 12.2692 28.2376 15.257 29.232C16.007 29.3625 16.2875 28.9125 16.2875 28.518C16.2875 28.1625 16.268 26.982 16.268 25.725C12.5 26.4195 11.525 24.807 11.225 23.9625C11.0555 23.5305 10.325 22.2 9.6875 21.843C9.1625 21.5625 8.4125 20.868 9.668 20.85C10.85 20.8305 11.693 21.9375 11.975 22.3875C13.325 24.6555 15.482 24.018 16.343 23.625C16.475 22.65 16.868 21.9945 17.3 21.6195C13.9625 21.2445 10.475 19.95 10.475 14.2125C10.475 12.5805 11.0555 11.232 12.0125 10.1805C11.8625 9.8055 11.3375 8.268 12.1625 6.2055C12.1625 6.2055 13.418 5.8125 16.2875 7.7445C17.5086 7.40559 18.7703 7.23501 20.0375 7.2375C21.3125 7.2375 22.5875 7.4055 23.7875 7.743C26.6555 5.793 27.9125 6.207 27.9125 6.207C28.7375 8.2695 28.2125 9.807 28.0625 10.182C29.018 11.232 29.6 12.5625 29.6 14.2125C29.6 19.9695 26.0945 21.2445 22.757 21.6195C23.3 22.0875 23.7695 22.9875 23.7695 24.3945C23.7695 26.4 23.75 28.0125 23.75 28.5195C23.75 28.9125 24.032 29.3805 24.782 29.2305C27.7595 28.2252 30.3469 26.3115 32.1799 23.7587C34.0128 21.206 34.9991 18.1427 35 15C35 6.7125 28.2875 0 20 0Z" fill="#FFFCF3"/>
</svg>
