<svg width="40" height="40" viewBox="0 0 40 40" fill="none" xmlns="http://www.w3.org/2000/svg">
<path d="M30.5583 25.565H26.1167V18.6033C26.1167 16.9433 26.0833 14.8067 23.8 14.8067C21.485 14.8067 21.1317 16.6133 21.1317 18.4817V25.565H16.6883V11.25H20.955V13.2H21.0133C21.61 12.0767 23.06 10.8883 25.2267 10.8883C29.7267 10.8883 30.56 13.8517 30.56 17.7067V25.565H30.5583ZM11.6717 9.29167C11.3326 9.29211 10.9968 9.22562 10.6834 9.09601C10.3701 8.9664 10.0854 8.77623 9.84576 8.53639C9.60608 8.29655 9.41609 8.01176 9.28668 7.69835C9.15728 7.38494 9.09101 7.04907 9.09167 6.71C9.092 6.19972 9.24363 5.70101 9.5274 5.27691C9.81117 4.85281 10.2143 4.52239 10.6859 4.32742C11.1574 4.13245 11.6762 4.08169 12.1766 4.18157C12.677 4.28144 13.1366 4.52746 13.4972 4.88851C13.8578 5.24956 14.1032 5.70943 14.2024 6.20997C14.3016 6.7105 14.2502 7.22922 14.0546 7.70053C13.8591 8.17184 13.5281 8.57456 13.1037 8.85778C12.6792 9.141 12.1819 9.292 11.6717 9.29167ZM13.8983 25.565H9.44333V11.25H13.9V25.565H13.8983ZM32.7833 0C43.6334 0 5 0 5 0C5 0 5 0.966667 5 2.16167V27.8383C5 29.0333 5 30 5 30H35C35 30 35 29.0333 35 27.8383V2.16167C35 0.966667 35 0 35 0H32.7833Z" fill="#FFFCF3"/>
</svg>
